<?xml version="1.0" encoding="UTF-8"?>
<svg width="512" height="512" viewBox="0 0 512 512" fill="none" xmlns="http://www.w3.org/2000/svg">
    <!-- 배경 -->
    <rect width="512" height="512" fill="#40916C"/>
    
    <!-- 열쇠 모양 -->
    <path d="M256 128C194.144 128 144 178.144 144 240C144 301.856 194.144 352 256 352C317.856 352 368 301.856 368 240C368 178.144 317.856 128 256 128ZM256 320C211.888 320 176 284.112 176 240C176 195.888 211.888 160 256 160C300.112 160 336 195.888 336 240C336 284.112 300.112 320 256 320Z" fill="white"/>
    
    <!-- 열쇠 구멍 -->
    <path d="M256 192C229.49 192 208 213.49 208 240C208 266.51 229.49 288 256 288C282.51 288 304 266.51 304 240C304 213.49 282.51 192 256 192Z" fill="white"/>
    
    <!-- 열쇠 손잡이 -->
    <path d="M320 240C320 284.112 284.112 320 240 320V352C302.864 352 352 302.864 352 240H320Z" fill="white"/>
</svg> 